<svg width="744" height="744" viewBox="0 0 744 744" fill="none" xmlns="http://www.w3.org/2000/svg">
<g clip-path="url(#clip0_11_80)">
<path fill-rule="evenodd" clip-rule="evenodd" d="M332.768 550.851H411.232C463.792 535.895 504.261 491.579 514.422 436.513H229.578C239.739 491.579 280.208 535.895 332.768 550.851ZM200.785 422.894C200.214 415.399 206.276 409.29 213.685 409.29H530.315C537.724 409.29 543.786 415.399 543.215 422.894C537.537 497.484 485.562 558.911 416.403 577.639C415.317 577.933 414.194 578.075 413.071 578.075H330.929C329.806 578.075 328.682 577.933 327.597 577.639C258.438 558.911 206.463 497.484 200.785 422.894Z" fill="#212427"/>
<path fill-rule="evenodd" clip-rule="evenodd" d="M506.057 370.21C493.476 307.33 438.226 259.958 372 259.958C305.774 259.958 250.524 307.33 237.942 370.21L506.057 370.21ZM535.337 383.866C535.949 391.38 529.814 397.514 522.319 397.514L221.681 397.514C214.186 397.514 208.051 391.38 208.663 383.866C215.561 299.201 286.054 232.654 372 232.654C457.945 232.654 528.439 299.201 535.337 383.866Z" fill="#212427"/>
<path fill-rule="evenodd" clip-rule="evenodd" d="M185 383.776C185 376.188 191.067 370.037 198.551 370.037L545.449 370.037C552.933 370.037 559 376.188 559 383.776C559 391.363 552.933 397.514 545.449 397.514L198.551 397.514C191.067 397.514 185 391.363 185 383.776Z" fill="#212427"/>
<path fill-rule="evenodd" clip-rule="evenodd" d="M372 228.848C381.85 228.848 389.835 220.886 389.835 211.065C389.835 201.244 381.85 193.283 372 193.283C362.15 193.283 354.165 201.244 354.165 211.065C354.165 220.886 362.15 228.848 372 228.848ZM372 256.206C397.004 256.206 417.274 235.996 417.274 211.065C417.274 186.135 397.004 165.925 372 165.925C346.996 165.925 326.726 186.135 326.726 211.065C326.726 235.996 346.996 256.206 372 256.206Z" fill="#212427"/>
</g>
<defs>
<clipPath id="clip0_11_80">
<rect width="374" height="420" fill="white" transform="translate(185 162)"/>
</clipPath>
</defs>
</svg>
