<svg width="40" height="40" viewBox="0 0 40 40" fill="none" xmlns="http://www.w3.org/2000/svg">
<g clip-path="url(#clip0_9_68)">
<path fill-rule="evenodd" clip-rule="evenodd" d="M15.8286 36.1076H23.1714C28.0902 34.7188 31.8774 30.6037 32.8282 25.4905H6.17177C7.12263 30.6037 10.9098 34.7188 15.8286 36.1076ZM3.47717 24.2259C3.42377 23.5299 3.99103 22.9626 4.68446 22.9626H34.3155C35.009 22.9626 35.5762 23.5299 35.5228 24.2259C34.9914 31.1521 30.1275 36.8561 23.6554 38.5951C23.5538 38.6224 23.4487 38.6355 23.3435 38.6355H15.6565C15.5513 38.6355 15.4462 38.6224 15.3446 38.5951C8.87252 36.8561 4.00856 31.1521 3.47717 24.2259Z" fill="#063E2E"/>
<path fill-rule="evenodd" clip-rule="evenodd" d="M32.0455 19.3338C30.8681 13.4949 25.6976 9.0961 19.5 9.0961C13.3024 9.0961 8.13189 13.495 6.95452 19.3338L32.0455 19.3338ZM34.7855 20.6018C34.8428 21.2996 34.2687 21.8692 33.5673 21.8692L5.43274 21.8692C4.7313 21.8692 4.15719 21.2996 4.21448 20.6018C4.85995 12.7401 11.457 6.56075 19.5 6.56075C27.543 6.56075 34.14 12.7401 34.7855 20.6018Z" fill="#063E2E"/>
<path fill-rule="evenodd" clip-rule="evenodd" d="M2 20.5935C2 19.8889 2.56775 19.3178 3.26812 19.3178L35.7319 19.3178C36.4322 19.3178 37 19.8889 37 20.5935C37 21.298 36.4322 21.8692 35.7319 21.8692L3.26812 21.8692C2.56775 21.8692 2 21.298 2 20.5935Z" fill="#063E2E"/>
<path fill-rule="evenodd" clip-rule="evenodd" d="M19.5 6.20731C20.4218 6.20731 21.1691 5.46803 21.1691 4.55608C21.1691 3.64413 20.4218 2.90484 19.5 2.90484C18.5782 2.90484 17.8309 3.64413 17.8309 4.55608C17.8309 5.46803 18.5782 6.20731 19.5 6.20731ZM19.5 8.74766C21.8399 8.74766 23.7368 6.87103 23.7368 4.55608C23.7368 2.24112 21.8399 0.364487 19.5 0.364487C17.1601 0.364487 15.2632 2.24112 15.2632 4.55608C15.2632 6.87103 17.1601 8.74766 19.5 8.74766Z" fill="#063E2E"/>
</g>
<defs>
<clipPath id="clip0_9_68">
<rect width="35" height="39" fill="white" transform="translate(2)"/>
</clipPath>
</defs>
</svg>
